<svg width="398" height="218" viewBox="0 0 398 218" fill="none" xmlns="http://www.w3.org/2000/svg">
    <rect width="398" height="218" rx="8" fill="#E5E5E5"/>
    <g clip-path="url(#clip0_326_42179)">
        <path d="M226.073 82.1536V111.295H171.819V61.7324H205.045" stroke="#CCCCCC" stroke-width="5.51924" stroke-linecap="round" stroke-linejoin="round"/>
        <path d="M226.073 103.788L205.707 83.4219L188.763 100.366L182.416 93.9636L171.819 104.561V111.294H226.073V103.788Z" stroke="#CCCCCC" stroke-width="5.51924" stroke-linecap="round" stroke-linejoin="round"/>
        <path d="M211.725 68.9043H226.075" stroke="#CCCCCC" stroke-width="4.13943" stroke-linecap="round" stroke-linejoin="round"/>
        <path d="M218.899 61.7305V76.0805" stroke="#CCCCCC" stroke-width="4.13943" stroke-linecap="round" stroke-linejoin="round"/>
        <path d="M186.169 81.5434C188.364 81.5434 190.143 79.7642 190.143 77.5696C190.143 75.3749 188.364 73.5957 186.169 73.5957C183.974 73.5957 182.195 75.3749 182.195 77.5696C182.195 79.7642 183.974 81.5434 186.169 81.5434Z" fill="#CCCCCC"/>
    </g>
    <rect x="146.5" y="143.5" width="106" height="27" rx="13.5" fill="white"/>
    <rect x="146.5" y="143.5" width="106" height="27" rx="13.5" stroke="#DDDDDD"/>
    <path d="M167.664 151.08V153.656C167.664 156.184 169.296 158.792 171.312 159.8L170.496 160.84C168.976 160.024 167.68 158.344 167.024 156.376C166.4 158.472 165.072 160.264 163.456 161.128L162.672 160.072C164.736 159.016 166.368 156.264 166.368 153.656V151.08H167.664ZM176.256 155.656V156.744H173.888V164.184H172.576V149.848H173.888V155.656H176.256ZM188.863 149.848V160.344H187.551V149.848H188.863ZM185.855 157.256L185.215 158.296C183.567 157.72 182.255 156.536 181.599 155.032C180.991 156.664 179.663 157.96 177.967 158.568L177.279 157.544C179.455 156.792 180.911 154.92 180.911 152.872V152.088H177.631V151.032H185.503V152.088H182.255V152.872C182.255 154.808 183.743 156.552 185.855 157.256ZM180.943 162.792H189.295V163.864H179.631V159.352H180.943V162.792ZM197.304 161.56V163H206.168V164.024H196.024V160.584H204.44V159.304H195.976V158.312H205.736V161.56H197.304ZM197.208 152.488C197.208 153.448 198.552 153.992 200.904 153.992C203.256 153.992 204.6 153.448 204.6 152.488C204.6 151.528 203.256 150.984 200.904 150.984C198.552 150.984 197.208 151.528 197.208 152.488ZM201.56 156.056H207.384V157.112H194.424V156.056H200.248V154.968C197.48 154.856 195.864 153.976 195.864 152.488C195.864 150.872 197.752 149.992 200.904 149.992C204.072 149.992 205.944 150.872 205.944 152.488C205.944 153.992 204.312 154.856 201.56 154.968V156.056ZM210.806 156.296V159.64C213.158 159.64 215.27 159.528 217.782 159.128L217.91 160.2C215.318 160.632 213.142 160.728 210.678 160.728H209.494V155.224H214.774V152.232H209.446V151.16H216.102V156.296H210.806ZM219.126 149.816H220.438V164.2H219.126V149.816ZM223.749 151.384H230.469C230.469 155.528 228.565 159.176 223.797 161.512L223.093 160.44C226.949 158.6 228.869 155.848 229.141 152.44H223.749V151.384ZM233.365 149.832H234.677V164.184H233.365V149.832Z" fill="#666666"/>
    <defs>
        <clipPath id="clip0_326_42179">
            <rect width="59.7733" height="55.082" fill="white" transform="translate(169.06 58.9707)"/>
        </clipPath>
    </defs>
</svg>
